<?xml version="1.0" encoding="iso-8859-1"?>
<!-- Generator: Adobe Illustrator 19.0.0, SVG Export Plug-In . SVG Version: 6.00 Build 0)  -->
<svg version="1.1" id="Capa_1" xmlns="http://www.w3.org/2000/svg" xmlns:xlink="http://www.w3.org/1999/xlink" x="0px" y="0px"
	 viewBox="0 0 496 496" style="enable-background:new 0 0 496 496;" xml:space="preserve">
<g>
	<path d="M488,352v-96c4.418,0,8-3.582,8-8s-3.582-8-8-8v-16c0-4.418-3.582-8-8-8h-8v-8c0-4.418-3.582-8-8-8s-8,3.582-8,8v8h-40v-8
		c0-4.418-3.582-8-8-8s-8,3.582-8,8v8h-72v-31.999c2.932-0.002,5.755-1.623,7.155-4.423c1.976-3.952,0.374-8.758-3.577-10.733
		l-80-40c-2.254-1.127-4.904-1.127-7.156,0l-80,40c-3.952,1.976-5.554,6.781-3.578,10.733c1.401,2.801,4.223,4.414,7.155,4.417V216
		H96v-8c0-4.418-3.582-8-8-8s-8,3.582-8,8v8H40v-8c0-4.418-3.582-8-8-8s-8,3.582-8,8v8h-8c-4.418,0-8,3.582-8,8v16
		c-4.418,0-8,3.582-8,8s3.582,8,8,8v96c-4.418,0-8,3.582-8,8s3.582,8,8,8h40c4.418,0,8-3.582,8-8s-3.582-8-8-8v-40h24v40
		c-4.418,0-8,3.582-8,8s3.582,8,8,8h40c4.418,0,8-3.582,8-8s-3.582-8-8-8v-56c0-8.822,7.178-16,16-16s16,7.178,16,16v56
		c-4.418,0-8,3.582-8,8s3.582,8,8,8h89c4.418,0,8-3.582,8-8s-3.582-8-8-8h-1v-56c0-8.822,7.178-16,16-16s16,7.178,16,16v56h-1
		c-4.418,0-8,3.582-8,8s3.582,8,8,8h89c4.418,0,8-3.582,8-8s-3.582-8-8-8v-56c0-8.822,7.178-16,16-16s16,7.178,16,16v56
		c-4.418,0-8,3.582-8,8s3.582,8,8,8h40c4.418,0,8-3.582,8-8s-3.582-8-8-8v-40h24v40c-4.418,0-8,3.582-8,8s3.582,8,8,8h40
		c4.418,0,8-3.582,8-8S492.418,352,488,352z M472,232v8H328v-8H472z M312,256v96h-8v-96H312z M184,240v-8h128v8H184z M192,256v96h-8
		v-96H192z M288,184v32h-80v-32H288z M304,216v-32h8v32H304z M248,144.945L294.111,168h-92.223L248,144.945z M184,184h8v32h-8V184z
		 M24,232h144v8H24V232z M24,352v-96h8v96H24z M48,296v-40h24v40H48z M136,265.013V264c0-4.418-3.582-8-8-8s-8,3.582-8,8v1.013
		c-13.786,3.562-24,16.104-24,30.987v56h-8v-96h40h40v96h-8v-56C160,281.117,149.786,268.574,136,265.013z M256,265.013V264
		c0-4.418-3.582-8-8-8c-4.418,0-8,3.582-8,8v1.013c-13.786,3.562-24,16.104-24,30.987v56h-8v-96h40h40v96h-8v-56
		C280,281.117,269.786,268.574,256,265.013z M400,352v-56c0-14.883-10.214-27.426-24-30.987V264c0-4.418-3.582-8-8-8s-8,3.582-8,8
		v1.013c-13.786,3.562-24,16.104-24,30.987v56h-8v-96h40h40v96H400z M424,296v-40h24v40H424z M464,256h8v96h-8V256z"/>
	<path d="M224,208h46c4.418,0,8-3.582,8-8s-3.582-8-8-8h-46c-4.418,0-8,3.582-8,8S219.582,208,224,208z"/>
</g>
<g>
</g>
<g>
</g>
<g>
</g>
<g>
</g>
<g>
</g>
<g>
</g>
<g>
</g>
<g>
</g>
<g>
</g>
<g>
</g>
<g>
</g>
<g>
</g>
<g>
</g>
<g>
</g>
<g>
</g>
</svg>
