<?xml version="1.0" encoding="iso-8859-1"?>
<!-- Generator: Adobe Illustrator 19.0.0, SVG Export Plug-In . SVG Version: 6.00 Build 0)  -->
<svg version="1.1" id="Layer_1" xmlns="http://www.w3.org/2000/svg" xmlns:xlink="http://www.w3.org/1999/xlink" x="0px" y="0px"
	 viewBox="0 0 512 512" style="enable-background:new 0 0 512 512;" xml:space="preserve">
<g>
	<g>
		<path d="M503.551,433.877h-24.024l-21.398-24.672c-1.605-1.851-3.934-2.913-6.383-2.913h-32.425l-12.72-19.295
			c-1.564-2.371-4.213-3.799-7.055-3.799H378.35l-14.271-112.587c-0.535-4.221-4.127-7.387-8.382-7.387H333.73
			c-4.586,0-8.334,3.659-8.447,8.243l-1.488,61.037h-5.947l-7.804-93.639c-0.201-2.405-1.419-4.61-3.35-6.058L286.416,217.6
			c-1.923-1.442-4.372-1.999-6.727-1.525l-73.997,14.8l-26.728-7.861c-1.791-0.527-3.706-0.446-5.446,0.231l-30.416,11.829
			c-3.005,1.169-5.083,3.945-5.357,7.158l-6.759,79.418c-0.201,2.357,0.596,4.69,2.197,6.432c1.6,1.742,3.857,2.733,6.222,2.733
			h3.948l-6.548,52.382h-26.526c-2.329,0-4.554,0.961-6.151,2.656L84.88,406.29H51.555c-3.077,0-5.911,1.673-7.397,4.367
			l-12.815,23.219H8.449c-4.666,0-8.449,3.783-8.449,8.449s3.783,8.452,8.449,8.452h495.102c4.666,0,8.449-3.783,8.449-8.449
			C512,437.66,508.217,433.877,503.551,433.877z M154.137,248.913l13.531-5.262l-1.22,30.501c-0.187,4.663,3.443,8.593,8.105,8.78
			c0.116,0.005,0.23,0.007,0.344,0.007c4.51,0,8.254-3.565,8.437-8.111l1.301-32.532l12.222,3.595v67.465
			c0,4.666,3.783,8.449,8.449,8.449s8.449-3.783,8.449-8.449v-66.86l59.141-11.829v82.067c0,4.666,3.783,8.449,8.449,8.449
			s8.449-3.783,8.449-8.449v-75.476l3.723,2.793l9.829,116.255c0.399,4.388,4.084,7.685,8.404,7.685
			c0.256,0,0.515-0.011,0.775-0.035c4.647-0.422,8.073-4.532,7.651-9.179l-0.852-9.373h12.714c4.586,0,8.334-3.659,8.447-8.243
			l1.488-61.037h6.275l13.066,103.075H247.552v-63.084c0-4.666-3.783-8.449-8.449-8.449c-4.666,0-8.449,3.783-8.449,8.449v63.084
			h-76.817l7.473-59.784c0.301-2.405-0.446-4.823-2.05-6.64c-1.604-1.817-3.91-2.858-6.335-2.858h-4.319L154.137,248.913z
			 M50.644,433.876l5.899-10.687h62.435c4.666,0,8.449-3.783,8.449-8.449c0-4.666-3.783-8.449-8.449-8.449h-10.885l5.834-6.195
			h281.07l4.084,6.195h-14.759c-4.666,0-8.449,3.783-8.449,8.449c0,4.666,3.783,8.449,8.449,8.449h63.568l9.268,10.687H50.644z"/>
	</g>
</g>
<g>
	<g>
		<path d="M503.551,465.982H8.449c-4.666,0-8.449,3.783-8.449,8.449s3.783,8.449,8.449,8.449h495.102
			c4.666,0,8.449-3.783,8.449-8.449S508.217,465.982,503.551,465.982z"/>
	</g>
</g>
<g>
	<g>
		<path d="M203.617,338.7c-4.666,0-8.449,3.783-8.449,8.449v15.209c0,4.666,3.783,8.449,8.449,8.449s8.449-3.783,8.449-8.449
			v-15.209C212.066,342.483,208.283,338.7,203.617,338.7z"/>
	</g>
</g>
<g>
	<g>
		<path d="M382.686,54.432c-35.873,0-65.057,29.184-65.057,65.057c0,35.872,29.185,65.056,65.057,65.056
			c35.872,0,65.057-29.184,65.057-65.056C447.743,83.617,418.559,54.432,382.686,54.432z M382.686,167.648
			c-26.555,0-48.159-21.603-48.159-48.157c0-26.555,21.604-48.159,48.158-48.159c26.554,0,48.159,21.603,48.159,48.159
			C430.844,146.045,409.241,167.648,382.686,167.648z"/>
	</g>
</g>
<g>
	<g>
		<path d="M382.686,29.12c-49.83,0-90.37,40.539-90.37,90.37c0,49.83,40.54,90.37,90.37,90.37s90.37-40.539,90.37-90.37
			C473.056,69.659,432.516,29.12,382.686,29.12z M382.686,192.961c-40.512,0-73.471-32.959-73.471-73.471
			c0-40.513,32.959-73.471,73.471-73.471c40.511,0,73.471,32.959,73.471,73.471C456.157,160.001,423.198,192.961,382.686,192.961z"
			/>
	</g>
</g>
<g>
</g>
<g>
</g>
<g>
</g>
<g>
</g>
<g>
</g>
<g>
</g>
<g>
</g>
<g>
</g>
<g>
</g>
<g>
</g>
<g>
</g>
<g>
</g>
<g>
</g>
<g>
</g>
<g>
</g>
</svg>
